# xmcd
#
# Track frame offsets: 
#        150
#        22068
#        40420
#        61446
#        80990
#        94373
#        111010
#        123959
#        134183
#        155551
#
# Disc length: 2543 seconds
#
# Revision: 0
# Processed by: cddbd v1.5.2PL0 Copyright (c) Steve Scherf et al.
# Submitted via: ExactAudioCopy v0.95b4
#
DISCID=9509ed0a
DTITLE=Barry Saunders - Zodiac
DYEAR=2008
DGENRE=Ballad
TTITLE0=Here Comes Tomorrow
TTITLE1=Still No Word From You
TTITLE2=Going Fishing
TTITLE3=To Roberta
TTITLE4=Dark Star
TTITLE5=Fade
TTITLE6=Start Up Again
TTITLE7=All Day Bay
TTITLE8=Do You Believe? (Dark Horizon)
TTITLE9=Walking New Year
EXTD=
EXTT0=
EXTT1=
EXTT2=
EXTT3=
EXTT4=
EXTT5=
EXTT6=
EXTT7=
EXTT8=
EXTT9=
PLAYORDER=
